<svg width="48" height="48" viewBox="0 0 48 48" fill="none" xmlns="http://www.w3.org/2000/svg">
<path fill-rule="evenodd" clip-rule="evenodd" d="M37.323 4.19144C37.1032 4.03145 36.8276 3.96788 36.5599 4.01538C36.2922 4.06288 36.0554 4.21734 35.904 4.44319L33.7354 7.67827C33.1738 7.56858 32.5936 7.51111 32 7.51111H14C9.02944 7.51111 5 11.5405 5 16.5111V34.5111C5 39.4817 9.02944 43.5111 14 43.5111H32C36.9706 43.5111 41 39.4817 41 34.5111V16.5111C41 15.271 40.7492 14.0895 40.2955 13.0145L42.8198 9.40506C43.1321 8.95848 43.0293 8.34406 42.5887 8.0234L37.323 4.19144ZM32.4952 9.52835L22.7685 24.0384L16.7096 19.301C16.4958 19.1339 16.2234 19.0608 15.9547 19.0985C15.6861 19.1362 15.4442 19.2814 15.2847 19.5008L11.6892 24.4475C11.3729 24.8826 11.4576 25.49 11.8808 25.8221L23.6131 35.0286C23.8293 35.1982 24.1057 35.2714 24.3775 35.231C24.6493 35.1906 24.8924 35.0402 25.0499 34.815L38.853 15.0773C38.9494 15.5401 39 16.0197 39 16.5111V34.5111C39 38.3771 35.866 41.5111 32 41.5111H14C10.134 41.5111 7 38.3771 7 34.5111V16.5111C7 12.6451 10.134 9.51111 14 9.51111H32C32.1665 9.51111 32.3316 9.51692 32.4952 9.52835Z" fill="url(#paint0_linear)"/>
<path d="M36.9859 6.4201L40.6177 9.06308L24.0159 32.8029L13.873 24.8437L16.2929 21.5145L22.3835 26.2767C22.6024 26.4478 22.8827 26.5202 23.1571 26.4764C23.4315 26.4326 23.6753 26.2765 23.83 26.0457L36.9859 6.4201Z" fill="#A6F6F1"/>
<defs>
<linearGradient id="paint0_linear" x1="41.0122" y1="21.9623" x2="13.5016" y2="22.1457" gradientUnits="userSpaceOnUse">
<stop stop-color="#19A9B2"/>
<stop offset="1" stop-color="#11E7DA"/>
</linearGradient>
</defs>
</svg>
