<svg xmlns="http://www.w3.org/2000/svg" width="22" height="22" viewBox="0 0 22 22">
  <path fill="#C8D1DC" d="M1108.78621,100 L1089.21379,100 C1088.54343,100 1088,100.543434 1088,101.213793 L1088,120.786207 C1088,121.456566 1088.54343,122 1089.21379,122 L1099.75862,122 L1099.75862,113.492069 L1096.89483,113.492069 L1096.89483,110.161724 L1099.75862,110.161724 L1099.75862,107.711379 C1099.75862,104.870345 1101.49586,103.322759 1104.02966,103.322759 C1104.88351,103.320897 1105.73687,103.363944 1106.58621,103.451724 L1106.58621,106.421724 L1104.84138,106.421724 C1103.46069,106.421724 1103.19138,107.074138 1103.19138,108.037586 L1103.19138,110.157931 L1106.49138,110.157931 L1106.06276,113.488276 L1103.17241,113.488276 L1103.17241,122 L1108.78621,122 C1109.45657,122 1110,121.456566 1110,120.786207 L1110,101.213793 C1110,100.543434 1109.45657,100 1108.78621,100 Z" transform="translate(-1088 -100)"/>
</svg>
