<svg xmlns="http://www.w3.org/2000/svg" viewBox="0 0 16 16" class="jsx-2972572868 "><path fill-rule="evenodd" clip-rule="evenodd" d="M8.29322 4.29325C8.68419 3.90225 9.31613 3.90225 9.70709 4.29325L12.7066 7.29325C13.0976 7.68425 13.0976 8.31625 12.7066 8.70725L9.70709 11.7073C9.51211 11.9023 9.25613 12.0002 9.00016 12.0002C8.74418 12.0002 8.4882 11.9023 8.29322 11.7073C7.90226 11.3163 7.90226 10.6842 8.29322 10.2933L9.57708 9H4C3.44772 9 3 8.55228 3 8C3 7.44772 3.44772 7 4 7H9.57687L8.29322 5.70725C7.90226 5.31625 7.90226 4.68425 8.29322 4.29325Z" fill="#121a24" class="jsx-2972572868"></path></svg>