<svg width="88" height="120" viewBox="0 0 88 120" fill="none" xmlns="http://www.w3.org/2000/svg">
<path opacity="0.4" d="M9.05267 33.747L6.99298 33.74L0.457703 53.7867H2.65698L9.05267 33.747ZM22.1093 33.747L20.0496 33.74L13.5143 53.7867H15.7137L22.1093 33.747ZM35.173 33.747L33.1132 33.74L26.5779 53.7867H28.7773L35.173 33.747ZM53.2776 20.9132H55.4771L61.8727 0.873444L59.8129 0.866455L53.2776 20.9132ZM66.3413 20.9132H68.5406L74.9363 0.873444L72.8766 0.866455L66.3413 20.9132ZM79.4049 20.9132H81.6043L88 0.873444L85.9402 0.866455L79.4049 20.9132ZM0.450684 119.52H2.65002L9.04572 99.4801L6.98596 99.4731L0.450684 119.52ZM13.5143 119.52H15.7137L22.1093 99.4801L20.0496 99.4731L13.5143 119.52ZM26.5779 119.52H28.7773L35.173 99.4801L33.1132 99.4731L26.5779 119.52ZM39.6415 119.52H41.8409L48.2365 99.4801L46.1768 99.4731L39.6415 119.52ZM1.03021 86.6532H3.22955L9.62524 66.6135L7.56549 66.6065L1.03021 86.6532ZM14.0938 86.6532H16.2932L22.6888 66.6135L20.6291 66.6065L14.0938 86.6532ZM27.1575 86.6532H29.3568L35.7524 66.6135L33.6927 66.6065L27.1575 86.6532ZM40.2141 86.6532H42.4135L48.8091 66.6135L46.7493 66.6065L40.2141 86.6532ZM53.2776 86.6532H55.4771L61.8727 66.6135L59.8129 66.6065L53.2776 86.6532ZM66.3413 86.6532H68.5406L74.9363 66.6135L72.8766 66.6065L66.3413 86.6532ZM79.4049 86.6532H81.6043L88 66.6135L85.9402 66.6065L79.4049 86.6532Z" fill="url(#paint0_linear)"/>
<defs>
<linearGradient id="paint0_linear" x1="-890.949" y1="11.6342" x2="104.291" y2="11.6342" gradientUnits="userSpaceOnUse">
<stop stop-color="#6DD6D1"/>
<stop offset="1" stop-color="#73D893"/>
</linearGradient>
</defs>
</svg>
