<svg fill="none" height="88" viewBox="0 0 503 88" width="503" xmlns="http://www.w3.org/2000/svg"><path d="m67.17 16h2.1l6.44-16h-2zm9.49 0h2.09l6.45-16h-2zm9.48 0h2.1l6.44-16h-2zm9.49 0h2.09l6.45-16h-2zm9.49 0h2.09l6.44-16h-2zm9.48 0h2.1l6.44-16h-2zm9.49 0h2.09l6.42-16h-2.05zm9.48 0h2.1l6.44-16h-2zm9.43 0h2.09l6.45-16h-2.05zm9.48 0h2.1l6.44-16h-2zm9.52 0h2.09l6.45-16h-2zm9.49 0h2.09l6.42-16h-2zm9.51 0h2.1l6.44-16h-2zm9.49 0h2.09l6.42-16h-2zm9.48 0h2.03l6.44-16h-2zm9.49 0h2.09l6.45-16h-2.05zm9.48 0h2.06l6.44-16h-2zm9.49 0h2.09l6.45-16h-2zm9.49 0h2.08l6.44-16h-2zm9.48 0h2.1l6.44-16h-2zm9.49 0h2.11l6.4-16h-2zm9.48 0h2.1l6.44-16h-2zm9.49 0h2.09l6.45-16h-2.05zm9.48 0h2.1l6.44-16h-2zm85.38 0h2.09l6.44-16h-2zm9.48 0h2.1l6.44-16h-2zm9.49 0h2.09l6.42-16h-2.05zm9.48 0h2.1l6.44-16h-2zm9.49 0h2.09l6.45-16h-2zm9.48 0h2.1l6.44-16h-2zm9.49 0h2.09l6.45-16h-2zm9.49 0h2.09l6.44-16h-2zm9.48 0h2.1l6.44-16h-2zm9.49 0h2.09l6.42-16h-2.05zm9.48 0h2.1l6.44-16h-2zm9.43 0h2.09l6.45-16h-2.05zm9.48 0h2.1l6.44-16h-2zm18-16h-2l-6.48 16h2.09zm-359.48 40h2.09l6.45-16h-2.05zm9.48 0h2.1l6.44-16h-2zm9.52 0h2.09l6.45-16h-2zm9.49 0h2.09l6.42-16h-2zm9.51 0h2.1l6.44-16h-2zm9.49 0h2.09l6.42-16h-2zm9.48 0h2.03l6.44-16h-2zm9.49 0h2.09l6.45-16h-2.05zm9.48 0h2.06l6.44-16h-2zm9.49 0h2.09l6.45-16h-2zm9.49 0h2.08l6.44-16h-2zm9.48 0h2.1l6.44-16h-2zm132.8 0h2.1l6.44-16h-2zm9.49 0h2.09l6.45-16h-2.05zm9.48 0h2.1l6.44-16h-2zm9.49 0h2.09l6.45-16h-2zm9.48 0h2.1l6.44-16h-2zm9.49 0h2.09l6.45-16h-2zm9.49 0h2.09l6.44-16h-2zm9.48 0h2.1l6.44-16h-2zm9.49 0h2.09l6.45-16h-2.05zm9.48 0h2.1l6.44-16h-2zm9.43 0h2.09l6.45-16h-2.05zm9.48 0h2.1l6.44-16h-2zm9.52 0h2.09l6.45-16h-2zm-493.229996 24h2.099996l6.44-16h-2zm9.489996 0h2.09l6.45-16h-2.05zm9.48 0h2.1l6.44-16h-2zm9.49 0h2.09l6.45-16h-2zm9.49 0h2.09l6.44-16h-2zm9.48 0h2.1l6.44-16h-2zm9.49 0h2.09l6.45-16h-2zm9.48 0h2.1l6.44-16h-2zm9.49 0h2.09l6.45-16h-2zm9.48 0h2.1l6.44-16h-2zm9.49 0h2.09l6.45-16h-2zm9.49 0h2.09l6.44-16h-2zm9.48 0h2.1l6.44-16h-2zm9.49 0h2.09l6.45-16h-2.05zm9.48 0h2.1l6.44-16h-2zm9.43 0h2.09l6.45-16h-2.05zm9.48 0h2.1l6.44-16h-2zm9.52 0h2.09l6.45-16h-2zm9.49 0h2.09l6.42-16h-2zm9.51 0h2.1l6.44-16h-2zm9.49 0h2.09l6.42-16h-2zm9.48 0h2.03l6.44-16h-2zm9.49 0h2.09l6.45-16h-2.05zm9.48 0h2.06l6.44-16h-2zm9.49 0h2.09l6.45-16h-2zm9.49 0h2.08l6.44-16h-2zm9.48 0h2.1l6.44-16h-2zm9.49 0h2.11l6.45-16h-2zm9.48 0h2.1l6.44-16h-2zm9.49 0h2.09l6.45-16h-2.05zm9.48 0h2.1l6.44-16h-2zm9.49 0h2.09l6.45-16h-2zm9.49 0h2.09l6.44-16h-2zm9.48 0h2.1l6.44-16h-2zm9.49 0h2.09l6.45-16h-2.05zm9.48 0h2.1l6.44-16h-2zm9.49 0h2.09l6.45-16h-2zm9.48 0h2.1l6.44-16h-2zm9.49 0h2.09l6.45-16h-2zm9.49 0h2.09l6.44-16h-2zm9.48 0h2.1l6.44-16h-2zm9.49 0h2.09l6.45-16h-2.05zm9.48 0h2.1l6.44-16h-2zm9.49 0h2.09l6.45-16h-2zm9.48 0h2.1l6.44-16h-2zm9.49 0h2.09l6.45-16h-2zm9.49 0h2.09l6.44-16h-2zm9.48 0h2.1l6.44-16h-2zm9.49 0h2.09l6.45-16h-2.05zm9.48 0h2.1l6.44-16h-2zm9.43 0h2.09l6.45-16h-2.05zm9.48 0h2.1l6.44-16h-2zm-417.31 24h2.1l6.44-16h-2zm9.49 0h2.09l6.45-16h-2zm9.48 0h2.1l6.44-16h-2zm9.49 0h2.09l6.45-16h-2zm9.49 0h2.09l6.44-16h-2zm9.48 0h2.1l6.44-16h-2zm9.49 0h2.09l6.45-16h-2.05zm9.48 0h2.1l6.44-16h-2zm104.35 0h2.08l6.44-16h-2zm9.48 0h2.1l6.44-16h-2zm9.49 0h2.11l6.45-16h-2zm9.48 0h2.1l6.44-16h-2zm9.49 0h2.09l6.45-16h-2.05zm9.48 0h2.1l6.44-16h-2zm9.49 0h2.09l6.45-16h-2zm9.49 0h2.09l6.44-16h-2zm9.48 0h2.1l6.44-16h-2zm9.49 0h2.09l6.45-16h-2.05zm9.48 0h2.1l6.44-16h-2zm9.49 0h2.09l6.45-16h-2zm9.48 0h2.1l6.44-16h-2zm9.49 0h2.09l6.45-16h-2zm9.49 0h2.09l6.44-16h-2zm9.48 0h2.1l6.44-16h-2zm9.49 0h2.09l6.45-16h-2.05zm9.48 0h2.1l6.44-16h-2zm9.49 0h2.09l6.45-16h-2zm9.48 0h2.1l6.44-16h-2zm9.49 0h2.09l6.45-16h-2zm9.49 0h2.09l6.44-16h-2zm9.48 0h2.1l6.44-16h-2z" fill="#d1fbf1"/></svg>