<svg width="479" height="53" viewBox="0 0 479 53" fill="none" xmlns="http://www.w3.org/2000/svg">
<path opacity="0.4" d="M34.1427 0.0069809L32.083 0L25.5477 20.0467H27.7471L34.1427 0.0069809ZM47.2064 0.0069809L45.1466 0L38.6113 20.0467H40.8107L47.2064 0.0069809ZM60.27 0.0069809L58.2102 0L51.668 20.0467H53.8673L60.27 0.0069809ZM73.3266 0.0069809L71.2669 0L64.7316 20.0467H66.931L73.3266 0.0069809ZM86.3902 0.0069809L84.3305 0L77.7952 20.0467H79.9946L86.3902 0.0069809ZM269.26 0.0069809L267.2 0L260.665 20.0467H262.864L269.26 0.0069809ZM282.324 0.0069809L280.264 0L273.728 20.0467H275.928L282.324 0.0069809ZM295.387 0.0069809L293.327 0L286.792 20.0467H288.991L295.387 0.0069809ZM0 52.9133H2.19938L8.59504 32.8735L6.5353 32.8665L0 52.9133ZM156.742 52.9133H158.942L165.337 32.8735L163.278 32.8665L156.742 52.9133ZM169.806 52.9133H172.005L178.401 32.8735L176.341 32.8665L169.806 52.9133ZM182.87 52.9133H185.069L191.465 32.8735L189.405 32.8665L182.87 52.9133ZM195.933 52.9133H198.133L204.528 32.8735L202.469 32.8665L195.933 52.9133ZM208.99 52.9133H211.189L217.585 32.8735L215.525 32.8665L208.99 52.9133ZM222.054 52.9133H224.253L230.649 32.8735L228.589 32.8665L222.054 52.9133ZM235.117 52.9133H237.317L243.712 32.8735L241.652 32.8665L235.117 52.9133ZM248.181 52.9133H250.38L256.776 32.8735L254.716 32.8665L248.181 52.9133ZM365.739 52.9133H367.939L374.334 32.8735L372.275 32.8665L365.739 52.9133ZM378.796 52.9133H380.995L387.391 32.8735L385.331 32.8665L378.796 52.9133ZM391.86 52.9133H394.059L400.455 32.8735L398.395 32.8665L391.86 52.9133ZM404.923 52.9133H407.123L413.518 32.8735L411.458 32.8665L404.923 52.9133ZM417.987 52.9133H420.186L426.582 32.8735L424.522 32.8665L417.987 52.9133ZM431.043 52.9133H433.243L439.638 32.8735L437.579 32.8665L431.043 52.9133ZM444.107 52.9133H446.306L452.702 32.8735L450.642 32.8665L444.107 52.9133ZM457.171 52.9133H459.37L465.766 32.8735L463.706 32.8665L457.171 52.9133ZM470.234 52.9133H472.434L478.829 32.8735L476.77 32.8665L470.234 52.9133Z" fill="url(#paint0_linear)"/>
<defs>
<linearGradient id="paint0_linear" x1="-42.9494" y1="43.6342" x2="952.291" y2="43.6342" gradientUnits="userSpaceOnUse">
<stop stop-color="#6DD6D1"/>
<stop offset="1" stop-color="#73D893"/>
</linearGradient>
</defs>
</svg>
