<svg fill="none" height="40" viewBox="0 0 465 40" width="465" xmlns="http://www.w3.org/2000/svg"><path d="m.720001 16h2.089999l6.44-16h-2zm9.479999 0h2.1l6.44-16h-2zm9.49 0h2.09l6.42-16h-2zm9.48 0h2.1l6.44-16h-2zm9.49 0h2.09l6.45-16h-2zm9.48 0h2.1l6.44-16h-2zm9.49 0h2.09l6.45-16h-2zm9.49 0h2.09l6.44-16h-2zm180.22 0h2.1l6.44-16h-2zm9.49 0h2.09l6.45-16h-2zm9.49 0h2.09l6.44-16h-2zm-265.599999 24h2.089999l6.44-16h-2zm142.279999 0h2.1l6.44-16h-2zm9.49 0h2.09l6.42-16h-2zm9.48 0h2.03l6.44-16h-2zm9.49 0h2.09l6.45-16h-2.05zm9.48 0h2.06l6.44-16h-2zm9.49 0h2.09l6.45-16h-2zm9.49 0h2.08l6.44-16h-2zm9.48 0h2.1l6.44-16h-2zm9.49 0h2.11l6.45-16h-2zm9.48 0h2.1l6.44-16h-2zm9.49 0h2.09l6.45-16h-2.05zm113.83 0h2.09l6.45-16h-2.05zm9.48 0h2.1l6.44-16h-2zm9.49 0h2.09l6.45-16h-2zm9.48 0h2.1l6.44-16h-2zm9.49 0h2.09l6.45-16h-2zm9.49 0h2.09l6.44-16h-2zm9.48 0h2.1l6.44-16h-2zm9.49 0h2.09l6.45-16h-2.05zm9.48 0h2.1l6.44-16h-2zm9.43 0h2.09l6.45-16h-2.05zm9.48 0h2.1l6.44-16h-2zm9.52 0h2.09l6.45-16h-2z" fill="#d1fbf1"/></svg>