<svg fill="none" height="40" viewBox="0 0 85 40" width="85" xmlns="http://www.w3.org/2000/svg" xmlns:xlink="http://www.w3.org/1999/xlink"><clipPath id="a"><path d="m0 0h85v40h-85z"/></clipPath><g clip-path="url(#a)"><path d="m0 16h2.09l6.45-16h-2zm9.49 0h2.09l6.42-16h-2zm9.51 0h2.1l6.41-16h-2zm9.49 0h2.09l6.42-16h-2zm9.48 0h2.03l6.48-16h-2zm9.49 0h2.09l6.45-16h-2zm9.48 0h2.06l6.45-16h-2zm9.49 0h2.09l6.42-16h-2zm9.49 0h2.08l6.42-16h-2zm-75.92 24h2.09l6.45-16h-2zm9.49 0h2.09l6.42-16h-2zm9.51 0h2.1l6.44-16h-2zm9.49 0h2.09l6.42-16h-2zm9.48 0h2.03l6.44-16h-2z" fill="#d1fbf1"/></g></svg>