<svg width="487" height="119" viewBox="0 0 487 119" fill="none" xmlns="http://www.w3.org/2000/svg">
<path opacity="0.4" d="M74.454 0.746979L72.3942 0.73999L65.8589 20.7867H68.0583L74.454 0.746979ZM87.5176 0.746979L85.4579 0.73999L78.9226 20.7867H81.1219L87.5176 0.746979ZM100.581 0.746979L98.5215 0.73999L91.9862 20.7867H94.1855L100.581 0.746979ZM113.638 0.746979L111.578 0.73999L105.043 20.7867H107.242L113.638 0.746979ZM126.701 0.746979L124.642 0.73999L118.106 20.7867H120.306L126.701 0.746979ZM139.765 0.746979L137.705 0.73999L131.17 20.7867H133.369L139.765 0.746979ZM152.829 0.746979L150.769 0.73999L144.234 20.7867H146.433L152.829 0.746979ZM165.885 0.746979L163.826 0.73999L157.29 20.7867H159.49L165.885 0.746979ZM178.949 0.746979L176.889 0.73999L170.354 20.7867H172.553L178.949 0.746979ZM192.013 0.746979L189.953 0.73999L183.418 20.7867H185.617L192.013 0.746979ZM205.076 0.746979L203.016 0.73999L196.481 20.7867H198.68L205.076 0.746979ZM218.133 0.746979L216.073 0.73999L209.538 20.7867H211.737L218.133 0.746979ZM231.196 0.746979L229.137 0.73999L222.601 20.7867H224.801L231.196 0.746979ZM244.26 0.746979L242.2 0.73999L235.665 20.7867H237.864L244.26 0.746979ZM257.324 0.746979L255.264 0.73999L248.729 20.7867H250.928L257.324 0.746979ZM270.387 0.746979L268.328 0.73999L261.792 20.7867H263.992L270.387 0.746979ZM283.444 0.746979L281.384 0.73999L274.849 20.7867H277.048L283.444 0.746979ZM374.882 0.746979L372.823 0.73999L366.287 20.7867H368.487L374.882 0.746979ZM387.939 0.746979L385.879 0.73999L379.344 20.7867H381.543L387.939 0.746979ZM401.002 0.746979L398.943 0.73999L392.407 20.7867H394.607L401.002 0.746979ZM414.066 0.746979L412.006 0.73999L405.471 20.7867H407.67L414.066 0.746979ZM427.13 0.746979L425.07 0.73999L418.535 20.7867H420.734L427.13 0.746979ZM440.193 0.746979L438.134 0.73999L431.598 20.7867H433.798L440.193 0.746979ZM453.25 0.746979L451.19 0.73999L444.655 20.7867H446.854L453.25 0.746979ZM466.314 0.746979L464.254 0.73999L457.719 20.7867H459.918L466.314 0.746979ZM479.377 0.746979L477.317 0.73999L470.782 20.7867H472.982L479.377 0.746979ZM492.441 0.746979L490.381 0.73999L483.846 20.7867H486.045L492.441 0.746979ZM9.14289 66.487L7.08315 66.4801L0.547852 86.5268H2.74723L9.14289 66.487ZM22.2065 66.487L20.1468 66.4801L13.6115 86.5268H15.8108L22.2065 66.487ZM35.2701 66.487L33.2104 66.4801L26.6681 86.5198H28.8675L35.2701 66.487ZM48.3267 66.487L46.267 66.4801L39.7317 86.5268H41.9311L48.3267 66.487ZM61.3904 66.487L59.3306 66.4801L52.7953 86.5268H54.9947L61.3904 66.487ZM87.5176 66.487L85.4579 66.4801L78.9226 86.5268H81.1219L87.5176 66.487ZM100.581 66.487L98.5215 66.4801L91.9862 86.5268H94.1855L100.581 66.487ZM113.638 66.487L111.578 66.4801L105.043 86.5268H107.242L113.638 66.487ZM126.701 66.487L124.642 66.4801L118.106 86.5268H120.306L126.701 66.487ZM131.17 86.5198H133.369L139.765 66.4801L137.705 66.4731L131.17 86.5198ZM144.227 86.5198H146.426L152.822 66.4801L150.762 66.4731L144.227 86.5198ZM157.29 86.5198H159.49L165.885 66.4801L163.826 66.4731L157.29 86.5198ZM170.354 86.5198H172.553L178.949 66.4801L176.889 66.4731L170.354 86.5198ZM183.418 86.5198H185.617L192.013 66.4801L189.953 66.4731L183.418 86.5198ZM196.481 86.5198H198.68L205.076 66.4801L203.016 66.4731L196.481 86.5198ZM209.538 86.5198H211.737L218.133 66.4801L216.073 66.4731L209.538 86.5198ZM231.196 66.487L229.137 66.4801L222.601 86.5268H224.801L231.196 66.487ZM244.26 66.487L242.2 66.4801L235.665 86.5268H237.864L244.26 66.487ZM257.324 66.487L255.264 66.4801L248.729 86.5268H250.928L257.324 66.487ZM270.387 66.487L268.328 66.4801L261.792 86.5268H263.992L270.387 66.487ZM283.444 66.487L281.384 66.4801L274.849 86.5268H277.048L283.444 66.487ZM296.508 66.487L294.448 66.4801L287.912 86.5268H290.112L296.508 66.487ZM309.571 66.487L307.511 66.4801L300.976 86.5268H303.175L309.571 66.487ZM322.635 66.487L320.575 66.4801L314.04 86.5268H316.239L322.635 66.487ZM335.691 66.487L333.632 66.4801L327.096 86.5268H329.296L335.691 66.487ZM348.755 66.487L346.695 66.4801L340.16 86.5268H342.359L348.755 66.487ZM361.819 66.487L359.759 66.4801L353.224 86.5268H355.423L361.819 66.487ZM374.882 66.487L372.823 66.4801L366.287 86.5268H368.487L374.882 66.487ZM387.939 66.487L385.879 66.4801L379.344 86.5268H381.543L387.939 66.487ZM401.002 66.487L398.943 66.4801L392.407 86.5268H394.607L401.002 66.487ZM414.066 66.487L412.006 66.4801L405.471 86.5268H407.67L414.066 66.487ZM427.13 66.487L425.07 66.4801L418.535 86.5268H420.734L427.13 66.487ZM440.193 66.487L438.134 66.4801L431.598 86.5268H433.798L440.193 66.487ZM444.655 86.5198H446.854L453.25 66.4801L451.19 66.4731L444.655 86.5198ZM457.719 86.5198H459.918L466.314 66.4801L464.254 66.4731L457.719 86.5198ZM470.782 86.5198H472.982L479.377 66.4801L477.317 66.4731L470.782 86.5198ZM131.743 53.6532H133.942L140.338 33.6135L138.278 33.6065L131.743 53.6532ZM144.806 53.6532H147.006L153.401 33.6135L151.341 33.6065L144.806 53.6532ZM157.87 53.6532H160.069L166.465 33.6135L164.405 33.6065L157.87 53.6532ZM170.933 53.6532H173.133L179.528 33.6135L177.469 33.6065L170.933 53.6532ZM183.99 53.6532H186.189L192.585 33.6135L190.525 33.6065L183.99 53.6532ZM197.054 53.6532H199.253L205.649 33.6135L203.589 33.6065L197.054 53.6532ZM210.117 53.6532H212.317L218.712 33.6135L216.653 33.6065L210.117 53.6532ZM223.181 53.6532H225.38L231.776 33.6135L229.716 33.6065L223.181 53.6532ZM236.238 53.6532H238.437L244.833 33.6135L242.773 33.6065L236.238 53.6532ZM366.86 53.6532H369.059L375.455 33.6135L373.395 33.6065L366.86 53.6532ZM379.923 53.6532H382.123L388.518 33.6135L386.459 33.6065L379.923 53.6532ZM392.987 53.6532H395.186L401.582 33.6135L399.522 33.6065L392.987 53.6532ZM406.044 53.6532H408.243L414.639 33.6135L412.579 33.6065L406.044 53.6532ZM419.107 53.6532H421.307L427.702 33.6135L425.642 33.6065L419.107 53.6532ZM432.171 53.6532H434.37L440.766 33.6135L438.706 33.6065L432.171 53.6532ZM445.234 53.6532H447.434L453.829 33.6135L451.77 33.6065L445.234 53.6532ZM458.291 53.6532H460.49L466.886 33.6135L464.826 33.6065L458.291 53.6532ZM471.355 53.6532H473.554L479.95 33.6135L477.89 33.6065L471.355 53.6532ZM484.418 53.6532H486.618L493.013 33.6135L490.954 33.6065L484.418 53.6532ZM40.3112 119.393H42.5106L48.9063 99.3536L46.8465 99.3466L40.3112 119.393ZM53.3749 119.393H55.5742L61.9699 99.3536L59.9101 99.3466L53.3749 119.393ZM66.4315 119.393H68.6309L75.0265 99.3536L72.9668 99.3466L66.4315 119.393ZM79.4951 119.393H81.6945L88.0901 99.3536L86.0304 99.3466L79.4951 119.393ZM92.5587 119.393H94.7581L101.154 99.3536L99.094 99.3466L92.5587 119.393ZM105.622 119.393H107.822L114.217 99.3536L112.158 99.3466L105.622 119.393ZM118.679 119.393H120.878L127.274 99.3536L125.214 99.3466L118.679 119.393ZM223.181 119.393H225.38L231.776 99.3536L229.716 99.3466L223.181 119.393ZM236.238 119.393H238.437L244.833 99.3536L242.773 99.3466L236.238 119.393ZM249.301 119.393H251.501L257.896 99.3536L255.836 99.3466L249.301 119.393ZM262.365 119.393H264.564L270.96 99.3536L268.9 99.3466L262.365 119.393ZM275.428 119.393H277.628L284.023 99.3536L281.964 99.3466L275.428 119.393ZM288.485 119.393H290.684L297.08 99.3536L295.02 99.3466L288.485 119.393ZM301.549 119.393H303.748L310.144 99.3536L308.084 99.3466L301.549 119.393ZM314.612 119.393H316.812L323.207 99.3536L321.148 99.3466L314.612 119.393ZM327.676 119.393H329.875L336.271 99.3536L334.211 99.3466L327.676 119.393ZM340.739 119.393H342.939L349.335 99.3536L347.275 99.3466L340.739 119.393ZM353.796 119.393H355.995L362.391 99.3536L360.331 99.3466L353.796 119.393ZM366.86 119.393H369.059L375.455 99.3536L373.395 99.3466L366.86 119.393ZM379.923 119.393H382.123L388.518 99.3536L386.459 99.3466L379.923 119.393ZM392.987 119.393H395.186L401.582 99.3536L399.522 99.3466L392.987 119.393ZM406.044 119.393H408.243L414.639 99.3536L412.579 99.3466L406.044 119.393ZM419.107 119.393H421.307L427.702 99.3536L425.642 99.3466L419.107 119.393ZM432.171 119.393H434.37L440.766 99.3536L438.706 99.3466L432.171 119.393Z" fill="url(#paint0_linear)"/>
<defs>
<linearGradient id="paint0_linear" x1="-67.9494" y1="-21.3657" x2="927.291" y2="-21.3658" gradientUnits="userSpaceOnUse">
<stop stop-color="#6DD6D1"/>
<stop offset="1" stop-color="#73D893"/>
</linearGradient>
</defs>
</svg>
