<svg xmlns="http://www.w3.org/2000/svg" width="25" height="22" viewBox="0 0 25 22">
  <path fill="#C8D1DC" fill-rule="evenodd" d="M1097.18,105.553059 C1097.18,105.989176 1097.225,106.412353 1097.3125,106.82 C1093.05,106.587059 1089.27,104.376706 1086.74125,101.015882 C1086.28294,101.870029 1086.04367,102.831504 1086.04625,103.808588 C1086.04625,105.735529 1086.95125,107.434706 1088.3275,108.431176 C1087.50967,108.402358 1086.71158,108.163553 1086.005,107.736235 L1086.00375,107.806118 C1086.00375,110.496588 1087.77125,112.741882 1090.11875,113.253059 C1089.36471,113.473512 1088.57095,113.505887 1087.8025,113.347529 C1088.455,115.555294 1090.35,117.16 1092.59375,117.204 C1090.47499,119.017817 1087.72903,119.849854 1085,119.504941 C1087.32185,121.12978 1090.05997,121.998687 1092.8625,122 C1102.29625,122 1107.455,113.536471 1107.455,106.197529 C1107.455,105.955529 1107.45,105.718706 1107.44125,105.479294 C1108.45206,104.685384 1109.31846,103.711719 1110,102.603765 C1109.06762,103.051634 1108.07368,103.346764 1107.05375,103.478588 C1108.13719,102.767872 1108.93757,101.677421 1109.30875,100.406353 C1108.30835,101.050274 1107.20603,101.506329 1106.0525,101.753529 C1105.1031,100.642476 1103.74035,100.004394 1102.3075,100 C1099.47625,100 1097.18,102.486 1097.18,105.553059 Z" transform="translate(-1085 -100)"/>
</svg>
